<svg width="102.95mm" height="62.065mm" version="1.1" viewBox="0 0 364.78 219.92" xmlns="http://www.w3.org/2000/svg">
 <style>
    path {
      fill: black;
      stroke: white;
      stroke-width: 1px;
    }
    @media (prefers-color-scheme: dark) {
      path {
        fill: white;
        stroke: black;
      }
    }
  </style>
 <g transform="translate(-3.3366 -3.3366)">
  <path d="m115.9 9.5324a104.75 103.76 0 0 0-104.75 103.76 104.75 103.76 0 0 0 30.726 73.325l49.348-48.883a34.916 34.587 0 0 1-10.242-24.442 34.916 34.587 0 0 1 34.916-34.588zm139.67 0a104.75 103.76 0 0 0-104.75 103.76 34.916 34.587 0 0 1-34.916 34.587v69.175a104.75 103.76 0 0 0 104.75-103.76 34.916 34.587 0 0 1 34.916-34.588zm74.023 30.437-49.348 48.883a34.916 34.587 0 0 1 10.242 24.442 34.916 34.587 0 0 1-34.916 34.587v69.175a104.75 103.76 0 0 0 104.75-103.76 104.75 103.76 0 0 0-30.726-73.326z" fill="none" stroke="#000" stroke-width="7.0866"/>
 </g>
</svg>
